<?xml version="1.0" standalone="no"?>
<!DOCTYPE svg PUBLIC "-//W3C//DTD SVG 20010904//EN"
 "http://www.w3.org/TR/2001/REC-SVG-20010904/DTD/svg10.dtd">
<svg version="1.0" xmlns="http://www.w3.org/2000/svg"
 width="413.000000pt" height="413.000000pt" viewBox="0 0 413.000000 413.000000"
 preserveAspectRatio="xMidYMid meet">
<metadata>
Created by potrace 1.14, written by Peter Selinger 2001-2017
</metadata>
<g transform="translate(0.000000,413.000000) scale(0.100000,-0.100000)"
fill="#000000" stroke="none">
<path d="M3110 3596 c-376 -79 -643 -387 -715 -824 -24 -146 -17 -411 15 -532
94 -355 326 -587 667 -666 166 -38 426 -38 634 2 83 15 299 81 299 90 0 2 -14
60 -31 129 l-31 124 -64 -24 c-136 -51 -254 -70 -449 -70 -159 0 -189 3 -260
23 -111 32 -198 83 -275 161 -106 108 -166 248 -177 414 l-6 87 696 0 697 0 6
26 c4 14 4 98 1 187 -4 131 -10 181 -31 262 -32 121 -108 279 -173 360 -91
112 -228 201 -368 240 -82 23 -346 29 -435 11z m299 -251 c88 -21 151 -58 216
-126 90 -94 155 -264 155 -404 l0 -45 -531 0 -531 0 7 43 c25 147 101 304 195
397 129 130 305 178 489 135z"/>
<path d="M2150 3457 c-171 -96 -260 -166 -260 -205 0 -26 12 -28 30 -7 7 8 72
47 144 86 190 103 219 124 244 168 12 22 19 42 14 45 -4 3 -82 -37 -172 -87z"/>
<path d="M2060 3108 c-42 -94 -87 -229 -99 -295 -6 -32 -17 -222 -26 -423 -8
-201 -19 -403 -25 -449 -9 -67 -8 -86 2 -92 12 -8 28 -12 28 -6 0 1 16 46 35
99 57 161 72 261 95 628 22 366 36 529 50 565 8 21 -2 35 -26 35 -3 0 -18 -28
-34 -62z"/>
<path d="M1250 3062 c-35 -93 -58 -192 -69 -297 -35 -333 -47 -806 -22 -905
19 -76 59 -147 95 -169 138 -85 298 27 370 259 38 119 40 136 19 144 -10 4
-19 3 -21 -3 -2 -5 -17 -30 -34 -55 -63 -96 -174 -125 -242 -66 -62 55 -85
171 -86 420 0 184 16 487 33 622 12 90 11 97 -5 101 -13 4 -22 -8 -38 -51z"/>
<path d="M1521 2905 c-39 -41 -71 -79 -71 -84 0 -4 31 -36 70 -70 52 -46 75
-61 89 -56 31 9 131 123 131 148 0 12 -10 34 -23 48 -27 32 -101 89 -115 89
-5 0 -42 -34 -81 -75z"/>
<path d="M616 2839 c-36 -39 -66 -75 -66 -79 0 -14 134 -130 151 -130 9 0 44
29 77 64 63 65 74 95 49 126 -26 33 -105 90 -125 90 -12 0 -46 -27 -86 -71z"/>
<path d="M1669 2669 l-57 -61 -59 46 c-32 25 -63 46 -70 46 -19 0 -153 -153
-152 -175 0 -22 128 -135 152 -135 9 0 44 27 78 59 l63 60 25 -19 c14 -10 37
-30 50 -44 32 -34 46 -33 99 11 82 67 103 133 59 185 -25 30 -105 88 -121 88
-6 0 -36 -27 -67 -61z"/>
<path d="M773 2609 l-61 -61 -54 41 c-30 22 -64 41 -76 41 -24 0 -152 -141
-152 -168 0 -14 125 -131 150 -140 5 -2 39 26 77 62 l69 64 49 -43 c28 -25 58
-44 68 -45 10 0 45 27 78 59 52 52 59 64 59 99 0 27 -7 47 -22 63 -21 23 -111
89 -121 89 -2 0 -31 -28 -64 -61z"/>
<path d="M707 1981 c-26 -45 -83 -89 -123 -97 -20 -4 -75 -1 -121 5 -47 7
-104 9 -129 5 -63 -9 -141 -60 -196 -128 -50 -63 -141 -233 -132 -248 11 -18
35 -6 76 38 73 79 116 91 238 64 160 -35 251 9 352 170 43 68 91 187 84 206
-9 23 -30 16 -49 -15z"/>
<path d="M3123 1253 c-121 -119 -127 -130 -138 -263 -9 -109 -11 -116 -50
-140 -20 -12 -44 -39 -55 -60 -21 -42 -67 -84 -117 -108 -57 -27 -39 -33 45
-16 14 3 36 25 56 57 19 29 50 66 70 81 50 38 66 74 77 179 18 163 11 147 113
237 82 72 125 124 113 136 -2 2 -53 -44 -114 -103z"/>
<path d="M1106 1148 c-12 -7 -46 -8 -91 -5 -61 6 -75 4 -87 -11 -30 -35 -27
-37 53 -35 78 2 123 16 148 47 15 18 4 20 -23 4z"/>
<path d="M2049 1011 c-52 -65 -100 -127 -107 -137 -10 -16 -12 -2 -9 81 3 92
2 97 -11 65 -19 -48 -28 -270 -12 -309 25 -60 95 -50 131 19 38 70 17 150 -39
150 -12 0 -22 2 -22 5 0 3 34 46 75 96 60 75 106 149 91 149 -1 0 -45 -54 -97
-119z m-24 -211 c18 -20 18 -21 -2 -42 -26 -25 -67 -19 -84 14 -23 43 51 66
86 28z"/>
<path d="M997 1013 c-9 -27 -17 -103 -20 -173 -5 -117 -4 -123 10 -90 14 32
39 297 29 307 -2 2 -11 -17 -19 -44z"/>
<path d="M1349 1013 c-7 -23 -13 -95 -13 -175 -1 -115 2 -140 16 -154 34 -34
87 2 104 70 l7 29 -22 -22 c-28 -28 -47 -27 -67 4 -14 21 -16 47 -12 155 2 72
3 130 2 130 -2 0 -8 -17 -15 -37z"/>
<path d="M607 1020 c-5 -14 -11 -89 -14 -166 -5 -135 -4 -143 16 -163 31 -31
56 -26 92 18 26 33 36 39 59 35 17 -4 32 0 43 10 8 9 25 16 36 16 13 0 29 13
41 33 24 39 27 73 3 40 -8 -13 -23 -23 -33 -23 -9 0 -25 -9 -35 -20 -12 -13
-25 -17 -45 -14 -21 5 -33 0 -53 -20 -14 -14 -35 -26 -45 -26 -39 0 -47 27
-52 169 -3 92 -8 128 -13 111z"/>
<path d="M472 891 c-7 -21 -12 -67 -12 -102 0 -75 -26 -139 -64 -164 -64 -42
-161 -37 -192 11 -17 24 -16 94 2 154 4 17 3 22 -4 15 -17 -16 -42 -115 -42
-164 0 -88 61 -140 142 -122 112 25 175 133 185 314 3 53 4 97 1 97 -3 0 -10
-17 -16 -39z"/>
<path d="M2300 871 c-14 -10 -51 -33 -83 -52 -63 -36 -90 -74 -85 -117 5 -45
37 -54 173 -48 165 7 420 49 409 68 -7 11 -120 10 -304 -3 -169 -13 -242 -6
-248 23 -2 12 13 25 50 44 69 35 106 61 118 85 13 23 3 24 -30 0z"/>
<path d="M1565 839 c-25 -47 -17 -73 24 -79 l34 -5 -44 -40 c-24 -22 -55 -48
-69 -58 l-25 -18 25 7 c89 23 117 52 127 131 10 86 -38 128 -72 62z"/>
<path d="M1223 813 c-16 -38 -36 -63 -82 -99 -33 -27 -56 -50 -52 -52 5 -2 28
2 51 8 46 12 69 42 96 123 22 66 12 81 -13 20z"/>
<path d="M1793 813 c-16 -38 -36 -63 -82 -99 -33 -27 -56 -50 -52 -52 5 -2 28
2 51 8 46 12 69 42 96 123 22 66 12 81 -13 20z"/>
<path d="M305 790 c-18 -20 -18 -21 3 -43 l22 -21 22 21 c21 22 21 23 3 43
-10 11 -21 20 -25 20 -4 0 -15 -9 -25 -20z"/>
<path d="M1395 570 c-17 -19 -17 -21 0 -40 13 -15 22 -17 36 -9 22 11 25 39 7
57 -16 16 -22 15 -43 -8z"/>
</g>
</svg>
